<svg width="1200" height="360" viewBox="0 0 1200 360" fill="none" xmlns="http://www.w3.org/2000/svg" role="img" aria-label="Infrastructure project card placeholder">
  <rect x="1" y="1" width="1198" height="358" rx="16" fill="#0F1621" stroke="#2A3B50"/>
  <rect x="36" y="38" width="220" height="28" rx="14" fill="#1D2F44"/>
  <rect x="44" y="46" width="198" height="12" rx="6" fill="#9AB9DA"/>
  <rect x="36" y="88" width="510" height="20" rx="10" fill="#DFE8F4"/>
  <rect x="36" y="122" width="610" height="11" rx="5.5" fill="#879DB5"/>
  <rect x="36" y="143" width="560" height="11" rx="5.5" fill="#879DB5"/>
  <rect x="36" y="164" width="630" height="11" rx="5.5" fill="#879DB5"/>
  <rect x="36" y="211" width="98" height="30" rx="15" fill="#1A2A3C"/>
  <rect x="142" y="211" width="122" height="30" rx="15" fill="#1A2A3C"/>
  <rect x="272" y="211" width="112" height="30" rx="15" fill="#1A2A3C"/>
  <rect x="392" y="211" width="114" height="30" rx="15" fill="#1A2A3C"/>
  <rect x="804" y="36" width="360" height="288" rx="14" fill="#121E2A" stroke="#314A66"/>
  <g stroke="#5F84AB" stroke-width="2.5">
    <rect x="856" y="98" width="98" height="48" rx="8"/>
    <rect x="1012" y="98" width="98" height="48" rx="8"/>
    <rect x="934" y="186" width="98" height="48" rx="8"/>
    <path d="M954 122H1012"/>
    <path d="M1061 146V186"/>
    <path d="M983 186V146"/>
  </g>
</svg>
