<svg width="1200" height="360" viewBox="0 0 1200 360" fill="none" xmlns="http://www.w3.org/2000/svg" role="img" aria-label="MyCell project card placeholder">
  <rect x="1" y="1" width="1198" height="358" rx="16" fill="#101722" stroke="#2A3B50"/>
  <rect x="36" y="38" width="170" height="28" rx="14" fill="#1E3248"/>
  <rect x="44" y="46" width="152" height="12" rx="6" fill="#97B7DA"/>
  <rect x="36" y="88" width="360" height="20" rx="10" fill="#DDE7F3"/>
  <rect x="36" y="122" width="520" height="11" rx="5.5" fill="#8399B2"/>
  <rect x="36" y="143" width="600" height="11" rx="5.5" fill="#8399B2"/>
  <rect x="36" y="164" width="560" height="11" rx="5.5" fill="#8399B2"/>
  <rect x="36" y="211" width="104" height="30" rx="15" fill="#1A2A3C"/>
  <rect x="148" y="211" width="94" height="30" rx="15" fill="#1A2A3C"/>
  <rect x="250" y="211" width="106" height="30" rx="15" fill="#1A2A3C"/>
  <rect x="364" y="211" width="90" height="30" rx="15" fill="#1A2A3C"/>
  <rect x="812" y="36" width="352" height="288" rx="14" fill="#121E2A" stroke="#314A66"/>
  <path d="M850 92C888 66 942 62 985 82C1028 102 1048 146 1045 188C1042 230 1018 262 975 280C932 298 876 292 842 262C808 232 799 184 812 146C819 126 831 108 850 92Z" fill="#1F3B59" fill-opacity="0.75"/>
</svg>
