<svg width="1200" height="360" viewBox="0 0 1200 360" fill="none" xmlns="http://www.w3.org/2000/svg" role="img" aria-label="Research project card placeholder">
  <rect x="1" y="1" width="1198" height="358" rx="16" fill="#101723" stroke="#2A3B50"/>
  <rect x="36" y="38" width="190" height="28" rx="14" fill="#203247"/>
  <rect x="44" y="46" width="164" height="12" rx="6" fill="#A0BFDE"/>
  <rect x="36" y="88" width="440" height="20" rx="10" fill="#E0EAF5"/>
  <rect x="36" y="122" width="580" height="11" rx="5.5" fill="#879DB5"/>
  <rect x="36" y="143" width="632" height="11" rx="5.5" fill="#879DB5"/>
  <rect x="36" y="164" width="544" height="11" rx="5.5" fill="#879DB5"/>
  <rect x="36" y="211" width="114" height="30" rx="15" fill="#1A2A3C"/>
  <rect x="158" y="211" width="132" height="30" rx="15" fill="#1A2A3C"/>
  <rect x="298" y="211" width="148" height="30" rx="15" fill="#1A2A3C"/>
  <rect x="454" y="211" width="114" height="30" rx="15" fill="#1A2A3C"/>
  <rect x="804" y="36" width="360" height="288" rx="14" fill="#121E2A" stroke="#314A66"/>
  <g>
    <rect x="858" y="90" width="252" height="176" rx="12" fill="#152536"/>
    <path d="M886 236L930 196L972 222L1028 164L1082 214" stroke="#79A6D8" stroke-width="4" stroke-linecap="round" stroke-linejoin="round"/>
    <circle cx="930" cy="196" r="6" fill="#9EC0E3"/>
    <circle cx="972" cy="222" r="6" fill="#9EC0E3"/>
    <circle cx="1028" cy="164" r="6" fill="#9EC0E3"/>
  </g>
</svg>
