<svg width="1200" height="320" viewBox="0 0 1200 320" fill="none" xmlns="http://www.w3.org/2000/svg" role="img" aria-label="Profile card placeholder">
  <defs>
    <linearGradient id="cardBg" x1="0" y1="0" x2="1200" y2="320" gradientUnits="userSpaceOnUse">
      <stop offset="0" stop-color="#0F141B"/>
      <stop offset="1" stop-color="#131C27"/>
    </linearGradient>
  </defs>
  <rect x="1" y="1" width="1198" height="318" rx="18" fill="url(#cardBg)" stroke="#293647"/>
  <circle cx="90" cy="88" r="34" fill="#1A2533" stroke="#334960"/>
  <rect x="145" y="62" width="320" height="16" rx="8" fill="#6EA8FE" fill-opacity="0.85"/>
  <rect x="145" y="88" width="230" height="12" rx="6" fill="#94A9C1"/>
  <rect x="56" y="146" width="1088" height="1" fill="#2A3748"/>
  <rect x="56" y="180" width="220" height="12" rx="6" fill="#C1CFDF" fill-opacity="0.92"/>
  <rect x="56" y="205" width="460" height="10" rx="5" fill="#7F94AC"/>
  <rect x="56" y="225" width="530" height="10" rx="5" fill="#7F94AC"/>
  <rect x="56" y="245" width="410" height="10" rx="5" fill="#7F94AC"/>
  <rect x="774" y="176" width="370" height="104" rx="12" fill="#121C28" stroke="#2B3E53"/>
  <rect x="798" y="198" width="180" height="10" rx="5" fill="#AFC3D8"/>
  <rect x="798" y="220" width="312" height="9" rx="4.5" fill="#6E84A0"/>
  <rect x="798" y="238" width="280" height="9" rx="4.5" fill="#6E84A0"/>
</svg>
